<svg width="25" height="25" viewBox="0 0 25 25" fill="none" xmlns="http://www.w3.org/2000/svg">
<path d="M22.7023 0.47998H2.25165C1.27365 0.47998 0.47998 1.25498 0.47998 2.20931V22.7483C0.47998 23.704 1.27365 24.48 2.25165 24.48H22.7023C23.681 24.48 24.48 23.704 24.48 22.7483V2.20931C24.48 1.25498 23.681 0.47998 22.7023 0.47998ZM7.59798 20.9313H4.03665V9.47831H7.59798V20.9313ZM5.81731 7.91231C4.67631 7.91231 3.75398 6.98765 3.75398 5.84765C3.75398 4.70931 4.67631 3.78465 5.81731 3.78465C6.95565 3.78465 7.88031 4.70931 7.88031 5.84765C7.88031 6.98765 6.95565 7.91231 5.81731 7.91231ZM20.93 20.9313H17.3743V15.362C17.3743 14.0333 17.3483 12.325 15.524 12.325C13.6713 12.325 13.389 13.772 13.389 15.2656V20.9316H9.83065V9.47831H13.2456V11.0423H13.2943C13.7696 10.1423 14.931 9.19265 16.663 9.19265C20.265 9.19265 20.9303 11.564 20.9303 14.649L20.93 20.9313Z" fill="#454545"/>
</svg>
