<svg width="24" height="24" viewBox="0 0 24 24" fill="none" xmlns="http://www.w3.org/2000/svg">
<g clip-path="url(#clip0_1207_232)">
<path fill-rule="evenodd" clip-rule="evenodd" d="M3.75 0H20.25C22.3211 0 24 1.67894 24 3.75V20.25C24 22.3211 22.3211 24 20.25 24H3.75C1.67894 24 0 22.3211 0 20.25V3.75C0 1.67894 1.67894 0 3.75 0ZM12.5189 9.00555C11.4442 9.45255 9.29618 10.3778 6.07494 11.7812C5.55186 11.9892 5.27785 12.1928 5.25291 12.3917C5.21075 12.728 5.63186 12.8604 6.20531 13.0407C6.2833 13.0652 6.36412 13.0907 6.44698 13.1176C7.01116 13.301 7.77007 13.5155 8.16465 13.5241C8.52248 13.5318 8.92192 13.3843 9.36292 13.0814C12.3726 11.0498 13.9262 10.0229 14.0237 10.0008C14.0926 9.9852 14.1879 9.96555 14.2526 10.0229C14.3171 10.0804 14.3108 10.1891 14.3039 10.2183C14.2622 10.3961 12.6092 11.933 11.7538 12.7283C11.4871 12.9761 11.2979 13.152 11.2593 13.1922C11.1727 13.2822 11.0843 13.3673 10.9995 13.4491C10.4754 13.9544 10.0823 14.3333 11.0212 14.952C11.4725 15.2494 11.8336 15.4952 12.1938 15.7406C12.5872 16.0084 12.9795 16.2757 13.4872 16.6084C13.6166 16.6932 13.7401 16.7812 13.8604 16.8671C14.3182 17.1935 14.7295 17.4866 15.2376 17.4399C15.5329 17.4128 15.8379 17.1351 15.9928 16.307C16.3589 14.3501 17.0784 10.1101 17.2447 8.36287C17.2592 8.2098 17.2409 8.01383 17.2262 7.92788C17.2115 7.84185 17.1807 7.7193 17.069 7.62862C16.9365 7.52122 16.7321 7.49854 16.6408 7.50008C16.2251 7.5075 15.5876 7.7292 12.5189 9.00555Z" fill="#454545"/>
</g>
<defs>
<clipPath id="clip0_1207_232">
<rect width="24" height="24" fill="white"/>
</clipPath>
</defs>
</svg>
