<svg width="12" height="14" viewBox="0 0 12 14" fill="none" xmlns="http://www.w3.org/2000/svg">
<path d="M6 3C5.50555 3 5.0222 3.14662 4.61107 3.42133C4.19995 3.69603 3.87952 4.08648 3.6903 4.54329C3.50108 5.00011 3.45157 5.50277 3.54804 5.98773C3.6445 6.47268 3.8826 6.91814 4.23223 7.26777C4.58186 7.6174 5.02732 7.8555 5.51227 7.95196C5.99723 8.04843 6.49989 7.99892 6.95671 7.8097C7.41352 7.62048 7.80397 7.30005 8.07867 6.88893C8.35338 6.4778 8.5 5.99445 8.5 5.5C8.5 4.83696 8.23661 4.20107 7.76777 3.73223C7.29893 3.26339 6.66304 3 6 3ZM6 7C5.70333 7 5.41332 6.91203 5.16664 6.7472C4.91997 6.58238 4.72771 6.34811 4.61418 6.07403C4.50065 5.79994 4.47094 5.49834 4.52882 5.20736C4.5867 4.91639 4.72956 4.64912 4.93934 4.43934C5.14912 4.22956 5.41639 4.0867 5.70736 4.02882C5.99834 3.97094 6.29994 4.00065 6.57403 4.11418C6.84811 4.22771 7.08238 4.41997 7.2472 4.66664C7.41203 4.91332 7.5 5.20333 7.5 5.5C7.5 5.89782 7.34196 6.27936 7.06066 6.56066C6.77936 6.84196 6.39782 7 6 7ZM6 0C4.54182 0.00165421 3.14383 0.581648 2.11274 1.61274C1.08165 2.64383 0.501654 4.04182 0.5 5.5C0.5 7.4625 1.40688 9.5425 3.125 11.5156C3.89701 12.4072 4.76591 13.2101 5.71562 13.9094C5.7997 13.9683 5.89985 13.9999 6.0025 13.9999C6.10515 13.9999 6.20531 13.9683 6.28938 13.9094C7.23734 13.2098 8.10455 12.4069 8.875 11.5156C10.5906 9.5425 11.5 7.4625 11.5 5.5C11.4983 4.04182 10.9184 2.64383 9.88726 1.61274C8.85617 0.581648 7.45818 0.00165421 6 0ZM6 12.875C4.96688 12.0625 1.5 9.07812 1.5 5.5C1.5 4.30653 1.97411 3.16193 2.81802 2.31802C3.66193 1.47411 4.80653 1 6 1C7.19347 1 8.33807 1.47411 9.18198 2.31802C10.0259 3.16193 10.5 4.30653 10.5 5.5C10.5 9.07687 7.03312 12.0625 6 12.875Z" fill="#666666"/>
</svg>
