<?xml version="1.0" encoding="utf-8"?><svg version="1.1" id="Layer_1" xmlns="http://www.w3.org/2000/svg" xmlns:xlink="http://www.w3.org/1999/xlink" x="0px" y="0px" viewBox="0 0 122.88 80.4" style="enable-background:new 0 0 122.88 80.4" xml:space="preserve"><style type="text/css"><![CDATA[
	.st0{fill-rule:evenodd;clip-rule:evenodd;}
	.st1{fill-rule:evenodd;clip-rule:evenodd;fill:#FFFFFF;}
]]></style><g><path class="st0" d="M24.52,0h73.84c1.4,0,2.69,0.58,3.62,1.51l0,0l0.01,0.01L102,1.53L102,1.53c0.93,0.94,1.51,2.22,1.51,3.62 v10.49h11.48c2.18,0,4.15,0.89,5.57,2.32c1.43,1.43,2.32,3.41,2.32,5.58v33.32c0,2.16-0.89,4.14-2.32,5.57 c-0.11,0.11-0.22,0.21-0.34,0.3c-1.4,1.25-3.24,2.02-5.23,2.02h-11.48v10.49c0,1.42-0.58,2.7-1.51,3.64 c-0.93,0.93-2.22,1.51-3.63,1.51H24.52c-1.4,0-2.69-0.58-3.63-1.51l-0.01-0.01l-0.01-0.01l-0.01-0.01 c-0.93-0.94-1.51-2.22-1.51-3.62V64.75H7.89c-2.16,0-4.14-0.89-5.58-2.32C0.89,61.01,0,59.04,0,56.86V23.54 c0-2.18,0.89-4.15,2.31-5.58c0.11-0.11,0.22-0.21,0.34-0.31c1.4-1.25,3.23-2.01,5.24-2.01h11.47V5.14c0.01-1.42,0.59-2.7,1.52-3.64 C20.94,1.45,21,1.4,21.06,1.35C21.98,0.51,23.19,0,24.52,0L24.52,0L24.52,0z M98.86,64.75H24.03v10.48c0,0.14,0.05,0.26,0.14,0.35 l0,0l0.01,0.01c0.09,0.09,0.21,0.14,0.35,0.14h73.84c0.13,0,0.25-0.06,0.35-0.15c0.09-0.09,0.15-0.21,0.15-0.35V64.75L98.86,64.75z"/><path class="st1" d="M7.89,19.92h107.09c1.99,0,3.62,1.65,3.62,3.62v33.32c0,1.97-1.65,3.62-3.62,3.62H7.89 c-1.97,0-3.62-1.63-3.62-3.62V23.54C4.27,21.54,5.9,19.92,7.89,19.92L7.89,19.92z"/><path d="M15.69,28.67h5.82v7.71c0.79-0.83,1.58-1.42,2.36-1.77c0.78-0.36,1.7-0.53,2.77-0.53c1.58,0,2.83,0.48,3.73,1.45 c0.91,0.96,1.36,2.44,1.36,4.44v9.66h-5.85v-8.36c0-0.96-0.18-1.63-0.53-2.02c-0.35-0.4-0.84-0.6-1.48-0.6 c-0.7,0-1.27,0.27-1.7,0.8c-0.43,0.54-0.65,1.49-0.65,2.88v7.3h-5.82V28.67L15.69,28.67z M42.23,28.67v5.77h3.19v4.27h-3.19v5.38 c0,0.64,0.06,1.07,0.18,1.28c0.19,0.32,0.53,0.48,1.01,0.48c0.43,0,1.03-0.12,1.8-0.37l0.43,4.02c-1.44,0.32-2.78,0.47-4.03,0.47 c-1.45,0-2.52-0.18-3.2-0.55c-0.68-0.37-1.19-0.94-1.52-1.69c-0.33-0.76-0.49-1.99-0.49-3.68v-5.34h-2.14v-4.27h2.14v-2.79 L42.23,28.67L42.23,28.67z M55.65,28.67v5.77h3.19v4.27h-3.19v5.38c0,0.64,0.06,1.08,0.18,1.28c0.19,0.32,0.53,0.48,1.01,0.48 c0.43,0,1.03-0.12,1.8-0.37l0.43,4.02c-1.44,0.32-2.78,0.47-4.03,0.47c-1.45,0-2.52-0.18-3.2-0.55c-0.68-0.37-1.19-0.94-1.52-1.69 c-0.33-0.75-0.49-1.99-0.49-3.68v-5.34h-2.14v-4.27h2.14v-2.79L55.65,28.67L55.65,28.67z M61.64,55.39V34.43h5.45v2.24 c0.75-0.95,1.45-1.58,2.07-1.92c0.84-0.45,1.78-0.67,2.81-0.67c2.03,0,3.6,0.78,4.71,2.33c1.11,1.55,1.66,3.48,1.66,5.77 c0,2.53-0.61,4.46-1.81,5.79c-1.21,1.33-2.74,2-4.58,2c-0.9,0-1.72-0.15-2.45-0.45c-0.74-0.3-1.4-0.75-1.98-1.35v7.22H61.64 L61.64,55.39z M67.48,42.08c0,1.21,0.25,2.1,0.75,2.69c0.5,0.58,1.14,0.88,1.91,0.88c0.67,0,1.24-0.28,1.7-0.84 c0.46-0.56,0.68-1.51,0.68-2.85c0-1.24-0.24-2.15-0.71-2.73c-0.48-0.58-1.05-0.87-1.74-0.87c-0.74,0-1.36,0.29-1.85,0.88 C67.73,39.82,67.48,40.76,67.48,42.08L67.48,42.08z M81.17,34.43h6.21v5.82h-6.21V34.43L81.17,34.43z M81.17,43.8h6.21v5.82h-6.21 V43.8L81.17,43.8z M96.12,28.31h2.94l-5.28,21.66h-2.94L96.12,28.31L96.12,28.31z M104.25,28.31h2.94l-5.28,21.66h-2.94 L104.25,28.31L104.25,28.31z"/><path class="st1" d="M24.12,64.75H98.8c0.05,0,0.09,0.04,0.09,0.09v10.39c0,0.27-0.22,0.49-0.49,0.49H24.52 c-0.27,0-0.49-0.22-0.49-0.49V64.84C24.03,64.79,24.07,64.75,24.12,64.75L24.12,64.75z"/><path class="st1" d="M30.24,6.61c1.83,0,3.32,1.49,3.32,3.31c0,1.83-1.49,3.32-3.32,3.32c-1.83,0-3.31-1.49-3.31-3.32 C26.93,8.1,28.41,6.61,30.24,6.61L30.24,6.61z"/><path class="st1" d="M41.96,6.61c1.83,0,3.32,1.49,3.32,3.31c0,1.83-1.49,3.32-3.32,3.32c-1.83,0-3.31-1.49-3.31-3.32 C38.65,8.1,40.13,6.61,41.96,6.61L41.96,6.61z"/><path class="st1" d="M53.69,6.61C55.52,6.61,57,8.1,57,9.93c0,1.83-1.49,3.32-3.32,3.32s-3.32-1.49-3.32-3.32 C50.37,8.1,51.86,6.61,53.69,6.61L53.69,6.61z"/></g></svg>