<?xml version="1.0" encoding="iso-8859-1"?>
<!-- Uploaded to: SVG Repo, www.svgrepo.com, Generator: SVG Repo Mixer Tools -->
<svg fill="#000000" height="800px" width="800px" version="1.1" id="Layer_1" xmlns="http://www.w3.org/2000/svg" xmlns:xlink="http://www.w3.org/1999/xlink" 
	 viewBox="0 0 507.172 507.172" xml:space="preserve">
<g>
	<g>
		<path d="M461.788,75.284h-420c-8.948,0-17.264,2.304-24.192,6.936l234.196,189.172L485.98,82.22
			C479.056,77.584,470.732,75.284,461.788,75.284z"/>
	</g>
</g>
<g>
	<g>
		<path d="M498.288,92.972l-198.28,159.784l198.28,159.784c5.008-7.096,8.884-15.732,8.884-25.068V118.04
			C507.172,108.704,503.296,100.072,498.288,92.972z"/>
	</g>
</g>
<g>
	<g>
		<path d="M7.096,92.972C2.08,100.068,0,108.704,0,118.04v269.432c0,9.332,2.08,17.968,7.096,25.068l197.38-159.784L7.096,92.972z"
			/>
	</g>
</g>
<g>
	<g>
		<path d="M287.416,262.944l-30.636,24.804c-1.456,1.176-3.228,1.764-4.988,1.764c-1.764,0-3.532-0.588-4.988-1.764l-30.628-24.796
			L17.604,424.112c6.924,4.644,15.24,7.776,24.188,7.776h420c8.944,0,17.264-3.132,24.192-7.776L287.416,262.944z"/>
	</g>
</g>
</svg>