<svg width="37" height="37" viewBox="0 0 37 37" fill="none" xmlns="http://www.w3.org/2000/svg">
<path d="M18.5026 27.753C23.6118 27.753 27.7536 23.6112 27.7536 18.502C27.7536 13.3928 23.6118 9.25098 18.5026 9.25098C13.3934 9.25098 9.25159 13.3928 9.25159 18.502C9.25159 23.6112 13.3934 27.753 18.5026 27.753Z" fill="#FFC700"/>
<path fill-rule="evenodd" clip-rule="evenodd" d="M6.9384 18.4977C6.9384 17.2194 5.90409 16.1851 4.62579 16.1851H2.31261C1.03431 16.1851 0 17.2194 0 18.4977C0 19.776 1.03431 20.8103 2.31261 20.8103H4.62522C5.90409 20.8103 6.9384 19.776 6.9384 18.4977Z" fill="#FFC700"/>
<path fill-rule="evenodd" clip-rule="evenodd" d="M7.05577 26.6738L5.41844 28.3117C4.51479 29.2148 4.51479 30.6787 5.41844 31.5818C6.32152 32.4848 7.7854 32.4848 8.68905 31.5818L10.327 29.9444C11.23 29.0414 11.23 27.5769 10.327 26.6738C9.42272 25.7702 7.95942 25.7702 7.05577 26.6738Z" fill="#FFC700"/>
<path fill-rule="evenodd" clip-rule="evenodd" d="M18.5026 30.0615C17.2243 30.0615 16.19 31.0958 16.19 32.3741V34.6873C16.19 35.9656 17.2243 36.9999 18.5026 36.9999C19.7809 36.9999 20.8152 35.9656 20.8152 34.6873L20.8129 32.3741C20.8152 31.0958 19.7786 30.0615 18.5026 30.0615Z" fill="#FFC700"/>
<path fill-rule="evenodd" clip-rule="evenodd" d="M29.9471 26.6759C29.0458 25.7705 27.5819 25.7705 26.6788 26.6736C25.7757 27.5767 25.7757 29.0411 26.6788 29.9442L28.3144 31.5792C29.2175 32.4869 30.6814 32.4823 31.5844 31.5792C32.4875 30.6761 32.4898 29.2146 31.5844 28.3092L29.9471 26.6759Z" fill="#FFC700"/>
<path fill-rule="evenodd" clip-rule="evenodd" d="M34.6926 16.1851L32.3748 16.1897C31.1011 16.1851 30.0668 17.2194 30.0668 18.4977C30.0622 19.776 31.1011 20.8103 32.3748 20.8103H34.688C35.9709 20.8149 37.0006 19.776 37.0006 18.4977C37.0029 17.2217 35.9709 16.1851 34.6926 16.1851Z" fill="#FFC700"/>
<path fill-rule="evenodd" clip-rule="evenodd" d="M29.9471 10.3233L31.5821 8.68767C32.4921 7.78229 32.4852 6.32072 31.5821 5.41707C30.6808 4.5111 29.2175 4.5111 28.3144 5.41475L26.6788 7.05439C25.7757 7.95342 25.7757 9.41672 26.6788 10.3204C27.5773 11.2292 29.0458 11.2246 29.9471 10.3233Z" fill="#FFC700"/>
<path fill-rule="evenodd" clip-rule="evenodd" d="M18.5026 6.93321C19.7786 6.94246 20.8152 5.8989 20.8152 4.62523V2.31262C20.8152 1.0297 19.7809 1.54519e-05 18.5026 1.54519e-05C17.2243 -0.00460976 16.19 1.0297 16.19 2.30858L16.1946 4.62581C16.19 5.8989 17.2243 6.93321 18.5026 6.93321Z" fill="#FFC700"/>
<path fill-rule="evenodd" clip-rule="evenodd" d="M7.06039 10.3212C7.95941 11.2242 9.41867 11.2242 10.3246 10.3189C11.2346 9.42215 11.23 7.95422 10.3293 7.05288L8.69367 5.41787C7.78597 4.50959 6.32671 4.51653 5.42306 5.41787C4.51247 6.31921 4.51247 7.78251 5.41612 8.68616L7.06039 10.3212Z" fill="#FFC700"/>
</svg>
