<svg width="16" height="15" viewBox="0 0 16 15" fill="none" xmlns="http://www.w3.org/2000/svg">
<path d="M15.735 4.15876L8.23503 0.158764C8.16269 0.120244 8.08198 0.100098 8.00003 0.100098C7.91807 0.100098 7.83737 0.120244 7.76503 0.158764L0.265027 4.15876C0.18503 4.2014 0.118127 4.26498 0.0714769 4.3427C0.0248264 4.42042 0.000183105 4.50937 0.000183105 4.60001C0.000183105 4.69066 0.0248264 4.77961 0.0714769 4.85733C0.118127 4.93505 0.18503 4.99863 0.265027 5.04126L2.00003 5.96689V8.99314C1.99951 9.23874 2.0899 9.47584 2.25378 9.65876C3.07253 10.5706 4.9069 12.1 8.00003 12.1C9.02562 12.1085 10.0435 11.9227 11 11.5525V13.6C11 13.7326 11.0527 13.8598 11.1465 13.9536C11.2402 14.0473 11.3674 14.1 11.5 14.1C11.6326 14.1 11.7598 14.0473 11.8536 13.9536C11.9473 13.8598 12 13.7326 12 13.6V11.0694C12.652 10.693 13.2412 10.2171 13.7463 9.65876C13.9102 9.47584 14.0005 9.23874 14 8.99314V5.96689L15.735 5.04126C15.815 4.99863 15.8819 4.93505 15.9286 4.85733C15.9752 4.77961 15.9999 4.69066 15.9999 4.60001C15.9999 4.50937 15.9752 4.42042 15.9286 4.3427C15.8819 4.26498 15.815 4.2014 15.735 4.15876ZM8.00003 11.1C5.29565 11.1 3.70503 9.77876 3.00003 8.99314V6.50001L7.76503 9.04126C7.83737 9.07978 7.91807 9.09993 8.00003 9.09993C8.08198 9.09993 8.16269 9.07978 8.23503 9.04126L11 7.56689V10.4631C10.2125 10.8306 9.22003 11.1 8.00003 11.1ZM13 8.99064C12.7003 9.32323 12.365 9.6219 12 9.88126V7.03314L13 6.50001V8.99064ZM11.75 6.03376L11.7363 6.02564L8.23628 4.15876C8.1195 4.09912 7.98397 4.08773 7.85889 4.12706C7.7338 4.16638 7.62916 4.25327 7.56753 4.36901C7.50589 4.48474 7.49218 4.62006 7.52936 4.7458C7.56653 4.87154 7.65162 4.97765 7.76628 5.04126L10.6875 6.60001L8.00003 8.03314L1.56253 4.60001L8.00003 1.16689L14.4375 4.60001L11.75 6.03376Z" fill="#666666"/>
</svg>
